# xmcd
#
# Track frame offsets:
#	182
#	26372
#	47837
#	70550
#	96427
#	119142
#	138812
#	164942
#	185950
#	205752
#
# Disc length: 2982 seconds
#
# Revision: 5
# Processed by: cddbd v1.5.2PL0 Copyright (c) Steve Scherf et al.
# Submitted via: EasyCDDAExtractor 10.0.2.1
#
DISCID=970ba40a
DTITLE=Various Artist - FUNK MELODY DANCE REMIXES [CD M063012496-2) SPOTLIGHT
DTITLE=RECORDS - 1995
DYEAR=1995
DGENRE=DANCE REMIX FUNK
TTITLE0=NETZWERK - MEMORIES (FUNK MELODY MIX) (BY GILMAR SINISTRO)
TTITLE1=P.O.L.O - I WANT YOU (FUNK MELODY NIX) (BY GILMAR SINISTRO)
TTITLE2=X FADE - HERE WE ARE (FUNK MELODY MIX) (BY GILMAR SINISTRO)
TTITLE3=ICE MC - IT'S RAINY DAY (FUNK MELODY MIX) (BY GILMAR SINISTRO)
TTITLE4=DOUBLE YOU - DANCING WITH AN ANGEL (FUNK MELODY MIX) (BY GILMAR SINIST
TTITLE4=RO)
TTITLE5=CORONA - TRY ME OUT (FUNK MELODY MIX) (BY GILMAR SINISTRO)
TTITLE6=NEVADA - DON'T YOU BRING ME LOVE (FUNK MELODY MIX) (BY GILMAR SINISTRO
TTITLE6=)
TTITLE7=FOURTEEN 14 - GOODBYE (FUNK MELODY MIX) (BY GILMAR SINISTRO)
TTITLE8=ICE MC - THINK ABOUT THE WAY (FUNK MELODY MIX) (BY GILMAR SINISTRO)
TTITLE9=BLACK 4 WHITE - CANNIBAL (FUNK MELODY MIX) (BY GILMAR SINISTRO)
EXTD=Rip by Hangar 18 - Guararapes - Brazil
EXTT0=
EXTT1=
EXTT2=
EXTT3=
EXTT4=
EXTT5=
EXTT6=
EXTT7=
EXTT8=
EXTT9=
PLAYORDER=
